<svg xmlns="http://www.w3.org/2000/svg" viewBox="0 0 181.88 90.34"><defs><style>.cls-1{font-size:53.66px;}.cls-1,.cls-4{fill:#7fb928;}.cls-1,.cls-2{font-family:BebasNeue-Regular, Bebas Neue;}.cls-2{font-size:40.25px;fill:#4d4c4c;}.cls-3{letter-spacing:0em;}</style></defs><g id="Calque_2" data-name="Calque 2"><g id="Calque_1-2" data-name="Calque 1"><text class="cls-1" transform="translate(0 45.61)">EQUO</text><text class="cls-2" transform="translate(0 82.29)"><tspan class="cls-3">C</tspan><tspan x="15.5" y="0">onstruction</tspan></text><path class="cls-4" d="M155.52,29.08a.14.14,0,0,0-.17.11h0a2.68,2.68,0,0,1-.47,1.1,3.9,3.9,0,0,1-.86.86,11,11,0,0,1-2.18,1.21l-2.3,1a16.64,16.64,0,0,0-2.22,1.23,9.48,9.48,0,0,0-1,.79l-.46.46-.21.24a2.43,2.43,0,0,0-.2.25,6.46,6.46,0,0,0-1.18,2.32,5.32,5.32,0,0,0-.18,1.32,5.5,5.5,0,0,0,.16,1.33,4.8,4.8,0,0,0,.52,1.24c.11.19.24.38.37.56a.88.88,0,0,0,.55.35c.16,0,.26-.16.31-.25,3.39-5.87,8.2-5.29,9.73-11.07-.05.17,0,.41-.08.7a8,8,0,0,1-.26,1.13,9.64,9.64,0,0,1-.58,1.39,11.37,11.37,0,0,1-.91,1.53c-.36.52-.77,1-1.21,1.57-.89,1.05-1.93,2.1-3,3.15s-2.1,2.11-3,3.19a16.43,16.43,0,0,0-1.24,1.64,9.67,9.67,0,0,0-.91,1.65,7.65,7.65,0,0,0-.48,1.56A6.2,6.2,0,0,0,144,51c0,.18,0,.33,0,.48l0,.2v.16l0,.26v0a.62.62,0,0,0,.74.46.62.62,0,0,0,.47-.74l-.07-.26v-.13l0-.15a3.18,3.18,0,0,1,0-.38,4.62,4.62,0,0,1,0-1,6.06,6.06,0,0,1,.34-1.35,9.27,9.27,0,0,1,.74-1.53,17.88,17.88,0,0,1,1.1-1.62,1.83,1.83,0,0,1,.13-.16l0,0,.38.15c.25.09.51.17.77.24a6.54,6.54,0,0,0,1.59.21,6.14,6.14,0,0,0,1.6-.18,6.5,6.5,0,0,0,1.49-.55,8.42,8.42,0,0,0,2.49-1.93,10.45,10.45,0,0,0,1.72-2.61,11.21,11.21,0,0,0,.93-3,10.14,10.14,0,0,0,0-3.11,8.47,8.47,0,0,0-2.95-5.34l-.06,0"/></g></g></svg>