<svg xmlns="http://www.w3.org/2000/svg" viewBox="0 0 181.88 90.08"><defs><style>.cls-1{font-size:53.66px;}.cls-1,.cls-2{font-family:BebasNeue-Regular, Bebas Neue;}.cls-2{font-size:40.25px;}.cls-3{letter-spacing:0em;}</style></defs><g id="Calque_2" data-name="Calque 2"><g id="Calque_1-2" data-name="Calque 1"><text class="cls-1" transform="translate(0.32 45.61)">EQUO</text><text class="cls-2" transform="translate(0 82.03)"><tspan class="cls-3">C</tspan><tspan x="15.5" y="0">onstruction</tspan></text><path d="M155.52,28.82a.15.15,0,0,0-.17.11h0a2.51,2.51,0,0,1-.47,1.1,3.9,3.9,0,0,1-.86.86,11,11,0,0,1-2.18,1.21l-2.3,1a16.64,16.64,0,0,0-2.22,1.23,9.48,9.48,0,0,0-1,.79l-.46.46-.21.24-.2.25a6.46,6.46,0,0,0-1.18,2.32,5.32,5.32,0,0,0-.18,1.32,5.5,5.5,0,0,0,.16,1.33,4.8,4.8,0,0,0,.52,1.24,5,5,0,0,0,.38.56.83.83,0,0,0,.54.35c.16,0,.26-.16.31-.25,3.39-5.87,8.2-5.29,9.73-11.07-.05.17,0,.41-.08.7a8.47,8.47,0,0,1-.26,1.14,10.67,10.67,0,0,1-.58,1.39,12,12,0,0,1-.91,1.52c-.36.52-.77,1.05-1.21,1.57-.89,1.05-1.93,2.1-3,3.16s-2.1,2.1-3,3.18a16.43,16.43,0,0,0-1.24,1.64,10.06,10.06,0,0,0-.91,1.65,7.65,7.65,0,0,0-.48,1.56,6.2,6.2,0,0,0-.1,1.29c0,.18,0,.33,0,.48l0,.2v.16l0,.26v0a.61.61,0,0,0,.74.46.62.62,0,0,0,.47-.74l-.07-.26v-.13l0-.15a3.22,3.22,0,0,1,0-.37,4.71,4.71,0,0,1,0-1,6.06,6.06,0,0,1,.34-1.35,9.67,9.67,0,0,1,.74-1.53,17.88,17.88,0,0,1,1.1-1.62l.13-.16,0,0,.38.15a6.86,6.86,0,0,0,.77.24,6.54,6.54,0,0,0,1.59.21,6.14,6.14,0,0,0,1.6-.18,6.75,6.75,0,0,0,1.5-.55,8.51,8.51,0,0,0,2.48-1.93,10.45,10.45,0,0,0,1.72-2.61,11.21,11.21,0,0,0,.93-3,10.13,10.13,0,0,0,0-3.11,8.47,8.47,0,0,0-2.95-5.34l-.06,0"/></g></g></svg>